<svg width="150" height="146" viewBox="0 0 150 146" fill="none" xmlns="http://www.w3.org/2000/svg">
<path opacity="0.1" d="M22.0321 2.81187L22.0321 2.81188C12.4714 5.96011 5.21212 13.9223 2.80925 23.9427L2.80924 23.9428C1.97964 27.4021 1.82101 31.5705 2.3836 34.9588C2.89429 38.0344 3.69175 40.5192 5.00114 43.1392C7.89624 48.9322 12.6003 53.3378 18.5927 55.8645C23.1647 57.7923 28.433 58.3779 33.4997 57.5075C41.5221 56.1293 48.627 51.305 53.0645 44.1902C54.1282 42.4847 55.3392 39.9126 55.9707 38.0184C58.341 30.9084 57.9121 23.292 54.7902 16.6994L56.0758 16.0906L54.7902 16.6994C50.3357 7.29273 40.8763 1.33938 30.5391 1.4234L30.5391 1.4234C29.8731 1.42879 29.0176 1.45713 28.6532 1.48349L22.0321 2.81187ZM22.0321 2.81187C24.1486 2.11489 26.5383 1.63678 28.6531 1.4835L22.0321 2.81187ZM62.7634 68.6629C62.251 69.5562 61.0368 71.6693 60.0652 73.3588C57.6513 77.5562 56.4955 79.5673 55.5402 81.2323C55.0946 82.009 54.3095 83.3754 53.7958 84.2687C53.2819 85.162 52.2318 86.9891 51.4621 88.329C50.6924 89.6689 49.5233 91.7026 48.8642 92.8483C48.205 93.994 47.1825 95.7735 46.5919 96.8027C46.0013 97.8319 44.9699 99.6273 44.2998 100.792C43.6298 101.958 42.8613 103.296 42.592 103.766L42.1025 104.621M62.7634 68.6629L63.9973 69.3708C63.4845 70.2647 62.2701 72.3783 61.2984 74.068C58.8844 78.2655 57.7289 80.2759 56.7741 81.9402C56.3281 82.7175 55.5429 84.0843 55.0289 84.9779L55.0288 84.978C54.5152 85.8709 53.4652 87.6978 52.6956 89.0376C51.9257 90.3777 50.7565 92.4117 50.0972 93.5577L50.0972 93.5577C49.4383 94.703 48.416 96.482 47.8257 97.5108C47.2348 98.5404 46.2032 100.336 45.533 101.502C44.8629 102.667 44.095 104.004 43.8266 104.473L43.7633 104.583M62.7634 68.6629L63.9973 69.3708C65.1763 67.3154 66.8125 64.4676 68.1955 62.0638L66.9625 61.3544L68.1955 62.0637C68.7881 61.0337 70.1477 58.6657 71.217 56.8013C72.2861 54.9372 73.5636 52.7144 74.0557 51.8618C74.5498 51.0059 75.4734 49.4 76.1087 48.2923L76.1087 48.2922C76.7428 47.1865 77.6748 45.5675 78.1791 44.6955L78.1792 44.6954C78.6829 43.8244 79.2178 42.8922 79.3651 42.6279C79.4996 42.3866 80.4125 40.7938 81.3995 39.0791L80.1667 38.3694L81.3995 39.079C84.0482 34.4774 84.7033 33.338 85.887 31.2743C86.4772 30.2455 87.2708 28.864 87.6505 28.2049L86.4179 27.4948L87.6505 28.2048C88.3097 27.0605 88.7544 26.2866 91.3238 21.8126C92.8538 19.1485 94.4106 16.44 95.524 14.5051L94.2911 13.7956L95.524 14.5051C96.0384 13.6111 96.9148 12.0852 97.4717 11.1135C98.0279 10.1432 99.1129 8.25298 99.8827 6.91339L100.881 5.17589L104.417 5.11097C106.805 5.06719 109.511 5.01103 110.431 4.98613M62.7634 68.6629L110.431 4.98613M43.7633 104.583L43.6171 104.353L43.3035 103.859L43.043 104.024L42.1025 104.621M43.7633 104.583L43.3371 105.328L42.1025 104.621M43.7633 104.583L44.1278 105.157C44.5816 105.872 45.0526 106.614 45.1753 106.806C45.3008 107.002 45.5598 107.41 45.7515 107.712M42.1025 104.621L42.9268 105.92C43.3801 106.634 43.8525 107.377 43.9766 107.571C44.1006 107.766 44.3586 108.171 44.5498 108.473M45.7515 107.712L45.7514 107.712L44.5498 108.473M45.7515 107.712L46.4225 108.771L46.4226 108.771C46.5993 109.05 50.486 115.156 55.0615 122.343C59.6328 129.522 63.4917 135.585 63.6375 135.815M45.7515 107.712L44.5498 108.473M44.5498 108.473L45.2209 109.533C45.3987 109.813 49.287 115.922 53.8616 123.107C58.4361 130.292 62.2945 136.353 62.4356 136.576M114.88 63.3316C115.649 61.9917 116.818 59.958 117.477 58.8122C118.136 57.6665 119.159 55.8871 119.749 54.8578M114.88 63.3316L113.646 62.6234C114.416 61.2831 115.584 59.2491 116.244 58.1029L116.244 58.1028C116.903 56.9575 117.925 55.1785 118.515 54.1498L119.749 54.8578M114.88 63.3316C113.435 65.8483 111.604 69.0359 109.524 72.6526C108.865 73.7984 107.897 75.4825 107.373 76.3952C105.911 78.9414 104.031 82.2128 103.152 83.7391C102.716 84.4964 101.922 85.8787 101.387 86.8108C100.853 87.7429 100.059 89.1252 99.6236 89.8825C97.4232 93.7109 93.242 100.988 92.4011 102.452L90.2317 106.23C89.5627 107.395 88.7776 108.761 88.4871 109.266C87.6301 110.756 84.1682 116.778 83.3115 118.269C81.8098 120.884 80.3258 123.467 79.1119 125.578M114.88 63.3316L113.646 62.6234C112.202 65.1397 110.37 68.3269 108.29 71.9435C107.631 73.0894 106.664 74.7739 106.139 75.6869L106.139 75.687C104.678 78.2329 102.798 81.5037 101.919 83.0292C101.483 83.7874 100.688 85.1704 100.153 86.1031L100.153 86.1031C99.6187 87.0349 98.8254 88.4168 98.3904 89.1736L98.3903 89.1737C96.1899 93.002 92.0085 100.279 91.1675 101.743L88.9982 105.521C88.3291 106.686 87.5443 108.052 87.2541 108.557C86.3969 110.046 82.9348 116.069 82.0779 117.561C80.5763 120.175 79.0924 122.758 77.8787 124.869L79.1119 125.578M119.749 54.8578L118.515 54.1498C120.179 51.2504 121.057 49.7243 123.143 46.0984C124.208 44.2478 125.209 42.498 125.374 42.1995M119.749 54.8578C121.413 51.9591 122.29 50.4334 124.376 46.8078C125.437 44.963 126.447 43.1994 126.619 42.8887M125.374 42.1995L145.151 10.6533C144.027 12.6107 142.653 15.0011 141.356 17.2557C139.877 19.825 138.834 21.6402 137.974 23.1395C137.535 23.9037 135.944 26.6739 134.437 29.2955C130.822 35.5831 130.386 36.3433 128.578 39.4992C127.732 40.9751 127.016 42.2144 126.986 42.2532M125.374 42.1995L126.619 42.8887M125.374 42.1995L125.375 42.1993M126.619 42.8887C126.791 42.578 126.956 42.292 126.986 42.2532M126.619 42.8887L125.375 42.1993M126.986 42.2532L125.857 41.3874M126.986 42.2532L125.857 41.3873C125.857 41.3873 125.857 41.3873 125.857 41.3874M125.857 41.3874C125.855 41.3898 125.853 41.3923 125.852 41.3948M125.857 41.3874C125.855 41.3898 125.853 41.3923 125.852 41.3948M125.852 41.3948C125.824 41.4315 125.8 41.4671 125.788 41.4863M125.852 41.3948C125.832 41.4214 125.812 41.4492 125.795 41.4753M125.788 41.4863L147.206 4.21598M125.788 41.4863L125.795 41.4753M125.788 41.4863L125.375 42.1993M125.788 41.4863C125.777 41.503 125.775 41.5072 125.786 41.4889L125.788 41.4863ZM125.795 41.4753L125.806 41.4569C125.818 41.4369 125.833 41.4113 125.851 41.3801C125.865 41.3556 125.882 41.3277 125.9 41.2964C125.983 41.1546 126.1 40.9521 126.244 40.7033C126.532 40.206 126.921 39.5288 127.343 38.792C129.152 35.6352 129.589 34.8743 133.203 28.5865C134.71 25.9649 136.302 23.1952 136.74 22.4315C137.601 20.9315 138.644 19.1158 140.123 16.5462C141.42 14.292 142.794 11.902 143.918 9.94499L145.844 6.59068C146.403 5.61625 146.851 4.83556 147.206 4.21598M125.795 41.4753C125.756 41.5329 125.727 41.582 125.722 41.5911C125.693 41.6386 125.659 41.696 125.624 41.7574C125.552 41.8812 125.464 42.0379 125.375 42.1993M147.206 4.21598C146.515 4.23117 145.63 4.25123 144.496 4.27702C139.639 4.38751 134.578 4.49318 127.862 4.6244C125.045 4.67943 122.063 4.74268 121.235 4.76496C120.392 4.78761 117.987 4.83658 115.89 4.87379C113.793 4.91106 111.336 4.96168 110.431 4.98613M147.206 4.21598L110.431 4.98613M79.1119 125.578L77.8787 124.869C77.2087 126.034 75.7844 128.513 74.7135 130.377C71.0674 136.725 70.1303 138.355 68.911 140.474C68.5453 141.11 68.1474 141.804 67.8157 142.386M79.1119 125.578C78.442 126.743 77.0178 129.222 75.947 131.086C72.3009 137.433 71.3636 139.064 70.144 141.184C69.6276 142.081 69.049 143.093 68.6839 143.736C68.6064 143.616 68.5182 143.48 68.4205 143.329C68.245 143.056 68.0406 142.738 67.8157 142.386M67.8157 142.386C67.5351 141.947 67.2227 141.456 66.8947 140.939C65.711 139.073 64.5492 137.244 64.3143 136.877M67.8157 142.386C67.5392 142.87 67.3087 143.276 67.1809 143.504L67.5539 143.713M64.3143 136.877C64.0819 136.514 63.777 136.035 63.6375 135.815M64.3143 136.877L63.1161 137.644M64.3143 136.877C64.3143 136.877 64.3143 136.877 64.3143 136.877L63.1161 137.644M63.6375 135.815L62.4356 136.576M63.6375 135.815C63.6376 135.815 63.6376 135.815 63.6377 135.815L62.4356 136.576M62.4356 136.576C62.5769 136.799 62.883 137.279 63.1161 137.644M63.1161 137.644C63.3491 138.008 64.5089 139.834 65.6935 141.701C66.1902 142.484 66.6518 143.208 67.0219 143.784C67.0719 143.697 67.1254 143.602 67.1809 143.504L67.5539 143.713M67.5539 143.713C67.4316 143.742 67.338 143.781 67.2804 143.808C67.2081 143.842 67.1481 143.878 67.1019 143.908C67.5692 144.635 67.8718 145.097 67.8825 145.097C67.9019 145.097 68.1445 144.693 68.4215 144.2C68.4693 144.114 68.5321 144.003 68.6067 143.872C68.4805 143.798 68.228 143.678 67.8982 143.674C67.7676 143.673 67.6516 143.69 67.5539 143.713Z" fill="white" stroke="black" stroke-width="2.84504"/>
</svg>
